<svg width="175" height="185" viewBox="0 0 175 185" fill="none" xmlns="http://www.w3.org/2000/svg">
<path d="M36.4583 161.875C32.4479 161.875 28.9844 160.398 26.0677 157.443C23.2726 154.359 21.875 150.698 21.875 146.458V38.5417C21.875 34.3021 23.2726 30.7049 26.0677 27.75C28.9844 24.6667 32.4479 23.125 36.4583 23.125H138.542C142.552 23.125 145.955 24.6667 148.75 27.75C151.667 30.7049 153.125 34.3021 153.125 38.5417V146.458C153.125 150.698 151.667 154.359 148.75 157.443C145.955 160.398 142.552 161.875 138.542 161.875H36.4583ZM36.4583 146.458H138.542V38.5417H36.4583V146.458ZM43.75 131.042H131.25L103.906 92.5L82.0313 123.333L65.625 100.208L43.75 131.042ZM36.4583 146.458V38.5417V146.458Z" fill="#1D1B20"/>
</svg>
